<svg xmlns="http://www.w3.org/2000/svg" viewBox="0 0 120 80" width="120" height="80">
  <!-- Definiciones para las intersecciones -->
  <defs>
    <!-- Máscara para las intersecciones -->
    <mask id="intersectionMask">
      <rect width="120" height="80" fill="white"/>
      <!-- Círculo IA (azul) -->
      <circle cx="30" cy="40" r="18" fill="black"/>
      <!-- Círculo Seguridad (verde menta) -->
      <circle cx="60" cy="25" r="18" fill="black"/>
      <!-- Círculo Cuidado (coral) -->
      <circle cx="60" cy="55" r="18" fill="black"/>
    </mask>
    
    <!-- Gradiente para intersecciones -->
    <linearGradient id="intersectionGradient" x1="0%" y1="0%" x2="100%" y2="100%">
      <stop offset="0%" style="stop-color:#5DA5A3;stop-opacity:1" />
      <stop offset="100%" style="stop-color:#4A8280;stop-opacity:1" />
    </linearGradient>
  </defs>
  
  <!-- Círculo IA (azul) - Tecnología, análisis -->
  <circle cx="30" cy="40" r="18" 
          fill="none" 
          stroke="#2C3E50" 
          stroke-width="3" 
          opacity="0.9"/>
  
  <!-- Círculo Seguridad Clínica (verde menta) - Salud -->
  <circle cx="60" cy="25" r="18" 
          fill="none" 
          stroke="#A8E6CF" 
          stroke-width="3" 
          opacity="0.9"/>
  
  <!-- Círculo Cuidado Humano (coral) - Cuidado -->
  <circle cx="60" cy="55" r="18" 
          fill="none" 
          stroke="#FF6F61" 
          stroke-width="3" 
          opacity="0.9"/>
  
  <!-- Intersecciones con color unificado -->
  <!-- Intersección IA + Seguridad -->
  <path d="M 42 32 A 18 18 0 0 1 48 25 A 18 18 0 0 1 42 32" 
        fill="#5DA5A3" 
        opacity="0.8"/>
  
  <!-- Intersección IA + Cuidado -->
  <path d="M 42 48 A 18 18 0 0 1 48 55 A 18 18 0 0 1 42 48" 
        fill="#5DA5A3" 
        opacity="0.8"/>
  
  <!-- Intersección Seguridad + Cuidado -->
  <path d="M 60 37 A 18 18 0 0 1 60 43 A 18 18 0 0 1 60 37" 
        fill="#5DA5A3" 
        opacity="0.8"/>
  
  <!-- Intersección central (donde se unen los tres) -->
  <circle cx="50" cy="40" r="4" 
          fill="#5DA5A3" 
          opacity="1"/>
  
  <!-- Iconos simbólicos sutiles (opcional) -->
  <!-- IA: punto tecnológico -->
  <circle cx="30" cy="40" r="2" fill="#2C3E50" opacity="0.6"/>
  
  <!-- Seguridad: cruz médica pequeña -->
  <g transform="translate(60,25)" opacity="0.6">
    <rect x="-1" y="-4" width="2" height="8" fill="#8BDBB7"/>
    <rect x="-4" y="-1" width="8" height="2" fill="#8BDBB7"/>
  </g>
  
  <!-- Cuidado: corazón pequeño -->
  <g transform="translate(60,55)" opacity="0.6">
    <path d="M-3,-1 C-3,-3 -1,-3 0,-1 C1,-3 3,-3 3,-1 C3,0 0,3 0,3 C0,3 -3,0 -3,-1 Z" 
          fill="#E5574A"/>
  </g>
</svg> 